<svg width="24" height="24" viewBox="0 0 24 24" fill="none" xmlns="http://www.w3.org/2000/svg">
<path d="M11.2929 19.7071C11.6834 20.0976 12.3166 20.0976 12.7071 19.7071C13.0976 19.3166 13.0976 18.6834 12.7071 18.2929L7.41421 13L19 13C19.5523 13 20 12.5523 20 12C20 11.4477 19.5523 11 19 11L7.41421 11L12.7071 5.70711C13.0976 5.31658 13.0976 4.68342 12.7071 4.29289C12.3166 3.90237 11.6834 3.90237 11.2929 4.29289L4.29361 11.2922C4.29119 11.2946 4.28879 11.297 4.2864 11.2995C4.1099 11.4792 4.0008 11.7254 4 11.997C4 11.998 4 11.999 4 12C4 12.001 4 12.002 4 12.003C4.0004 12.1375 4.02735 12.2657 4.07588 12.3828C4.12357 12.498 4.19374 12.6062 4.2864 12.7005C4.28875 12.703 4.29112 12.7053 4.29351 12.7077" fill="#A4B6BA"/>
<path d="M4.29351 12.7077L11.2929 19.7071L4.29351 12.7077Z" fill="#A4B6BA"/>
</svg>
