<svg width="80" height="80" viewBox="0 0 80 80" fill="none" xmlns="http://www.w3.org/2000/svg">
<path fill-rule="evenodd" clip-rule="evenodd" d="M67 36.95H55.09V22.67H63.71C64.31 22.67 64.73 22.25 64.73 21.65V16.79C64.73 13.6 62.13 11 58.94 11H17.79C14.6 11 12 13.6 12 16.79V57.06C12 58.63 13.18 59.81 14.75 59.81H39.42V66.69C39.42 67.73 40.27 68.58 41.31 68.58H67C68.04 68.58 68.89 67.73 68.89 66.69V38.83C68.88 37.8 68.04 36.95 67 36.95ZM66.85 38.99V66.55H41.46V38.99H66.85ZM55 16.79C55 14.72 56.68 13.04 58.75 13.04C60.9 13.04 62.59 14.69 62.59 16.79V20.54H55V16.79ZM53.05 16.79V36.86H41.31C40.27 36.86 39.42 37.71 39.42 38.75V57.69H14.6V57.77C14.25 57.71 14.03 57.45 14.03 57.06V16.79C14.03 14.72 15.71 13.04 17.78 13.04H54.42C53.54 14.12 53.05 15.44 53.05 16.79ZM44.3501 49.49H63.9601C64.5601 49.49 64.9801 49.07 64.9801 48.47V42.31C64.9801 41.68 64.4501 41.29 63.9601 41.29H44.3501C43.7501 41.29 43.3301 41.71 43.3301 42.31V48.47C43.3301 49.07 43.7501 49.49 44.3501 49.49ZM45.3701 47.45V43.33H62.9501V47.45H45.3701ZM45.4702 51.79H47.2102C47.7302 51.79 48.2302 52.3 48.2302 52.81C48.2302 53.41 47.8102 53.83 47.2102 53.83H45.4702C44.8702 53.83 44.4502 53.41 44.4502 52.81C44.4502 52.21 44.8702 51.79 45.4702 51.79ZM52.4202 51.79H50.6802C50.0802 51.79 49.6602 52.21 49.6602 52.81C49.6602 53.41 50.0802 53.83 50.6802 53.83H52.4202C53.0202 53.83 53.4402 53.41 53.4402 52.81C53.4402 52.3 52.9302 51.79 52.4202 51.79ZM55.8901 51.79H57.6301C58.1401 51.79 58.6401 52.3 58.6501 52.81C58.6501 53.41 58.2301 53.83 57.6301 53.83H55.8901C55.2901 53.83 54.8701 53.41 54.8701 52.81C54.8701 52.21 55.2901 51.79 55.8901 51.79ZM47.2102 57H45.4702C44.8702 57 44.4502 57.42 44.4502 58.02C44.4502 58.62 44.8702 59.04 45.4702 59.04H47.2102C47.8102 59.04 48.2302 58.62 48.2302 58.02C48.2302 57.5 47.7302 57 47.2102 57ZM50.6802 57H52.4202C52.9302 57 53.4402 57.5 53.4402 58.02C53.4402 58.62 53.0202 59.04 52.4202 59.04H50.6802C50.0802 59.04 49.6602 58.62 49.6602 58.02C49.6602 57.42 50.0802 57 50.6802 57ZM57.6301 57H55.8901C55.2901 57 54.8701 57.42 54.8701 58.02C54.8701 58.62 55.2901 59.04 55.8901 59.04H57.6301C58.2401 59.04 58.6501 58.63 58.6501 58.02C58.6401 57.5 58.1401 57 57.6301 57ZM45.4702 62.21H47.2102C47.7302 62.21 48.2302 62.71 48.2302 63.23C48.2302 63.83 47.8102 64.25 47.2102 64.25H45.4702C44.8702 64.25 44.4502 63.83 44.4502 63.23C44.4502 62.63 44.8702 62.21 45.4702 62.21ZM52.4202 62.21H50.6802C50.0802 62.21 49.6602 62.63 49.6602 63.23C49.6602 63.83 50.0802 64.25 50.6802 64.25H52.4202C53.0202 64.25 53.4402 63.83 53.4402 63.23C53.4402 62.71 52.9302 62.21 52.4202 62.21ZM55.8901 62.21H57.6301C58.1401 62.21 58.6401 62.71 58.6501 63.23C58.6501 63.83 58.2301 64.25 57.6301 64.25H55.8901C55.2901 64.25 54.8701 63.83 54.8701 63.23C54.8701 62.63 55.2901 62.21 55.8901 62.21ZM16.8496 18.8803C16.8496 19.5103 17.3796 19.9004 17.8696 19.9004H48.3596C48.9596 19.9004 49.3796 19.4803 49.3796 18.8803C49.3796 18.2803 48.9596 17.8604 48.3596 17.8604H17.8696C17.2696 17.8604 16.8496 18.2803 16.8496 18.8803ZM17.8696 23.6201H48.3696C48.9596 23.6201 49.3796 24.0401 49.3796 24.6401C49.3796 25.2401 48.9596 25.6601 48.3596 25.6601H17.8696C17.3796 25.6601 16.8496 25.2701 16.8496 24.6401C16.8496 24.0401 17.2696 23.6201 17.8696 23.6201ZM33.3304 51.9697H17.7104C17.1104 51.9697 16.6904 52.3897 16.6904 52.9897C16.6904 53.5897 17.1104 54.0097 17.7104 54.0097H33.3304C33.9304 54.0097 34.3504 53.5897 34.3504 52.9897C34.3404 52.3597 33.8204 51.9697 33.3304 51.9697ZM17.8696 29.4502H33.4896C33.9796 29.4502 34.5096 29.8402 34.5096 30.4702C34.5096 31.0702 34.0896 31.4902 33.4896 31.4902H17.8696C17.2596 31.4902 16.8496 31.0802 16.8496 30.4702C16.8496 29.8702 17.2696 29.4502 17.8696 29.4502ZM33.4896 35.2695H17.8696C17.2696 35.2695 16.8496 35.6895 16.8496 36.2895C16.8496 36.8895 17.2696 37.3095 17.8696 37.3095H33.4896C34.0896 37.3095 34.5096 36.8895 34.5096 36.2895C34.5096 35.6595 33.9796 35.2695 33.4896 35.2695ZM60.364 52.074C60.5482 51.8898 60.8056 51.79 61.1001 51.79H62.8301C63.0992 51.79 63.3529 51.9232 63.5374 52.1077C63.7218 52.2921 63.8539 52.5446 63.86 52.8066L63.8601 52.8101C63.8601 53.1045 63.7603 53.3619 63.5761 53.5461C63.392 53.7303 63.1345 53.83 62.8401 53.83H61.1001C60.8056 53.83 60.5482 53.7303 60.364 53.5461C60.1798 53.3619 60.0801 53.1045 60.0801 52.8101C60.0801 52.5156 60.1798 52.2582 60.364 52.074ZM61.1001 57C60.8056 57 60.5482 57.0997 60.364 57.2839C60.1798 57.4681 60.0801 57.7255 60.0801 58.02C60.0801 58.3144 60.1798 58.5719 60.364 58.7561C60.5482 58.9402 60.8056 59.04 61.1001 59.04H62.8401C63.1345 59.04 63.392 58.9402 63.5761 58.7561C63.7603 58.5719 63.8601 58.3144 63.8601 58.02L63.86 58.0166C63.854 57.75 63.7222 57.4973 63.537 57.3135C63.3518 57.1297 63.0981 57 62.8301 57H61.1001ZM60.364 62.4939C60.5482 62.3097 60.8056 62.21 61.1001 62.21H62.8301C63.0981 62.21 63.3518 62.3397 63.537 62.5235C63.7222 62.7073 63.854 62.96 63.86 63.2266L63.8601 63.23C63.8601 63.5244 63.7603 63.7818 63.5761 63.966C63.392 64.1502 63.1345 64.25 62.8401 64.25H61.1001C60.8056 64.25 60.5482 64.1502 60.364 63.966C60.1798 63.7818 60.0801 63.5244 60.0801 63.23C60.0801 62.9355 60.1798 62.6781 60.364 62.4939Z" fill="#8EC665"/>
</svg>
