<svg width="24" height="24" viewBox="0 0 24 24" fill="none" xmlns="http://www.w3.org/2000/svg">
<path fill-rule="evenodd" clip-rule="evenodd" d="M12 0.75C5.7875 0.75 0.75 5.7875 0.75 12C0.75 18.2125 5.7875 23.25 12 23.25C18.2125 23.25 23.25 18.2125 23.25 12C23.25 5.7875 18.2125 0.75 12 0.75Z" fill="#CBD5D8"/>
<path fill-rule="evenodd" clip-rule="evenodd" d="M12.3875 8.69962C13.3375 8.78712 14.175 8.09962 14.2625 7.14962C14.2625 7.11212 14.2625 7.08712 14.275 7.04962C14.3375 6.39962 13.8625 5.82462 13.225 5.76212C13.1125 5.74962 13.0125 5.74962 12.9125 5.77462C11.95 5.66212 11.075 6.34962 10.95 7.32462C10.95 7.34962 10.95 7.37462 10.9375 7.39962C10.875 8.06212 11.3625 8.66212 12.0375 8.72462C12.1625 8.72462 12.275 8.72462 12.3875 8.69962ZM14.075 16.0496C13.6125 16.4371 13.0625 16.7121 12.4625 16.8371C12.3 16.8371 12.225 16.6246 12.3875 15.9996L13.325 12.4871C13.6875 11.1996 13.5625 10.3621 12.85 10.3621C11.1375 10.6871 9.53755 11.4746 8.23755 12.6496L8.60005 13.2246C9.12505 12.8871 9.68755 12.6371 10.3 12.4871C10.4625 12.4871 10.4375 12.6996 10.3 13.2371L9.47505 16.5746C8.97505 18.4621 9.50005 18.8871 10.2125 18.8871C11.85 18.6121 13.35 17.7996 14.4875 16.5746L14.075 16.0496Z" fill="white"/>
</svg>
