<svg width="80" height="80" viewBox="0 0 80 80" fill="none" xmlns="http://www.w3.org/2000/svg">
<path fill-rule="evenodd" clip-rule="evenodd" d="M43.9493 39.8046C42.2151 40.9634 40.1763 41.5819 38.0906 41.5819C35.2938 41.5819 32.6116 40.4708 30.634 38.4932C28.6563 36.5156 27.5453 33.8333 27.5453 31.0365C27.5453 28.9509 28.1638 26.912 29.3225 25.1779C30.4813 23.4437 32.1282 22.0921 34.0551 21.2939C35.982 20.4958 38.1023 20.2869 40.1479 20.6938C42.1935 21.1007 44.0725 22.1051 45.5473 23.5799C47.0221 25.0547 48.0264 26.9337 48.4333 28.9792C48.8402 31.0248 48.6314 33.1452 47.8332 35.0721C47.0351 36.999 45.6835 38.6459 43.9493 39.8046ZM38.0906 35.8339C36.1655 35.8339 34.3107 36.5579 32.8947 37.8622C34.3953 38.9826 36.2179 39.5879 38.0906 39.5879C39.9634 39.5879 41.7859 38.9826 43.2866 37.8622C41.8706 36.5579 40.0158 35.8339 38.0906 35.8339ZM42.7298 23.7377C41.3426 22.8594 39.7324 22.3981 38.0906 22.4085C36.4489 22.3981 34.8386 22.8594 33.4515 23.7377C32.0643 24.6159 30.9586 25.8741 30.2659 27.3626C29.5731 28.8511 29.3225 30.5072 29.5438 32.1341C29.7651 33.7609 30.449 35.2899 31.5142 36.5393C33.2931 34.862 35.6457 33.9279 38.0906 33.9279C40.5356 33.9279 42.8881 34.862 44.6671 36.5393C45.7323 35.2899 46.4162 33.7609 46.6375 32.1341C46.8588 30.5072 46.6082 28.8511 45.9154 27.3626C45.2227 25.8741 44.117 24.6159 42.7298 23.7377ZM40.288 31.6882C39.6377 32.1228 38.8732 32.3547 38.091 32.3547C37.0422 32.3547 36.0364 31.9381 35.2948 31.1965C34.5532 30.4548 34.1365 29.449 34.1365 28.4002C34.1365 27.6181 34.3685 26.8535 34.803 26.2032C35.2375 25.5529 35.8551 25.046 36.5777 24.7467C37.3003 24.4474 38.0954 24.3691 38.8625 24.5217C39.6296 24.6743 40.3342 25.0509 40.8873 25.604C41.4403 26.157 41.817 26.8616 41.9696 27.6287C42.1221 28.3958 42.0438 29.1909 41.7445 29.9135C41.4452 30.6361 40.9384 31.2537 40.288 31.6882ZM39.1895 26.7562C38.8644 26.5389 38.4821 26.423 38.091 26.423C37.5666 26.423 37.0637 26.6313 36.6929 27.0021C36.3221 27.3729 36.1138 27.8758 36.1138 28.4002C36.1138 28.7913 36.2298 29.1736 36.447 29.4987C36.6643 29.8239 36.9731 30.0773 37.3344 30.2269C37.6957 30.3766 38.0932 30.4158 38.4768 30.3395C38.8603 30.2632 39.2126 30.0749 39.4892 29.7983C39.7657 29.5218 39.954 29.1695 40.0303 28.7859C40.1066 28.4024 40.0674 28.0048 39.9178 27.6435C39.7681 27.2823 39.5147 26.9734 39.1895 26.7562Z" fill="#CBD5D8"/>
<path fill-rule="evenodd" clip-rule="evenodd" d="M59.1287 68.6406L18.002 68.6406C17.4325 68.6406 16.9896 68.1977 17.0002 67.6388L17.0002 12.0017C17.0002 11.4428 17.4325 10.9999 18.002 10.9999C18.0037 10.9999 18.0055 10.9999 18.0072 10.9999C18.009 10.9999 18.0108 10.9999 18.0125 10.9999L51.8736 10.9999C52.2005 10.9999 52.4957 11.1581 52.675 11.4006L59.8353 19.7631C60.0146 19.9423 60.1306 20.1954 60.1306 20.4696L60.1305 67.6388C60.1305 68.1977 59.6876 68.6406 59.1287 68.6406ZM19.0038 13.0035L19.0038 66.6265L58.1164 66.6265L58.1164 21.4714L51.863 21.4714C51.3041 21.4714 50.8612 21.0285 50.8612 20.4696L50.8612 13.0035L19.0038 13.0035ZM26.1538 56.9779L38.1431 56.978C38.702 56.978 39.1449 56.535 39.1449 55.9761C39.1449 55.4172 38.702 54.9743 38.1431 54.9743L26.1538 54.9743C25.5844 54.9743 25.152 55.4172 25.152 55.9761C25.152 56.535 25.6054 56.9779 26.1538 56.9779ZM26.1534 50.6188L52.7592 50.6188C53.3181 50.6188 53.7611 50.1759 53.7611 49.617C53.7611 49.0581 53.3181 48.6152 52.7592 48.6152L26.1534 48.6152C25.5839 48.6152 25.1516 49.0581 25.1516 49.617C25.1516 50.1865 25.5945 50.6188 26.1534 50.6188Z" fill="#CBD5D8"/>
<circle cx="58.1269" cy="47.9089" r="8.43626" fill="white"/>
<path d="M58.1266 35.8633H57.5074L57.4907 35.88C51.1449 36.2119 46.0812 41.482 46.0812 47.9087C46.0812 54.5487 51.4866 59.954 58.1265 59.954C60.5249 59.954 62.761 59.246 64.6386 58.0332L72.1304 65.525C72.3634 65.7638 72.6411 65.9547 72.9476 66.0868C73.2594 66.2212 73.5949 66.2921 73.9345 66.2953C74.274 66.2985 74.6108 66.234 74.9251 66.1056C75.2395 65.9771 75.525 65.7873 75.7651 65.5472C76.0052 65.3071 76.1951 65.0215 76.3235 64.7072C76.452 64.3929 76.5165 64.0561 76.5132 63.7166C76.51 63.377 76.4391 63.0415 76.3047 62.7297C76.1726 62.4231 75.9817 62.1455 75.7429 61.9124L68.2511 54.4207C69.464 52.5431 70.172 50.307 70.172 47.9086C70.172 41.2686 64.7666 35.8633 58.1266 35.8633ZM58.1265 40.9725C61.9698 40.9725 65.0628 44.0655 65.0628 47.9087C65.0628 51.752 61.9698 54.845 58.1265 54.845C54.2833 54.845 51.1903 51.752 51.1903 47.9087C51.1903 44.0655 54.2833 40.9725 58.1265 40.9725Z" fill="#CBD5D8" stroke="white" stroke-width="3"/>
</svg>
