<svg width="20" height="20" viewBox="0 0 20 20" fill="none" xmlns="http://www.w3.org/2000/svg">
<circle cx="9.99992" cy="10.0007" r="8.41667" fill="white" stroke="#CBD5D8" stroke-width="1.5"/>
<path d="M12.5308 7.66328L12.5302 7.67546V7.68764C12.5302 7.90897 12.4914 8.12567 12.4184 8.33976C12.3408 8.536 12.2503 8.7057 12.1312 8.8645L12.1312 8.86449L12.1286 8.8679C12.0043 9.03666 11.8645 9.19342 11.7101 9.33061C11.5267 9.49368 11.3618 9.63902 11.209 9.76321L10.7578 10.1242C10.5884 10.2526 10.4471 10.4089 10.3351 10.59C10.2289 10.758 10.1624 10.94 10.1153 11.1049L10.1118 11.1173L10.1089 11.1298C10.0894 11.214 10.0554 11.3058 10.0106 11.397C9.98426 11.4436 9.95818 11.4743 9.93748 11.4927C9.88136 11.5199 9.82379 11.5308 9.77171 11.5275L9.74572 11.5259L9.7197 11.527C9.64573 11.53 9.59173 11.4991 9.55884 11.4485L9.55214 11.4382L9.54495 11.4282C9.4748 11.3311 9.43591 11.2097 9.43591 11.0895V11.0795L9.43551 11.0695C9.42906 10.9081 9.4676 10.7383 9.54409 10.5838C9.63765 10.406 9.74402 10.2525 9.87037 10.1183L9.87525 10.1131L9.87998 10.1078C10.0232 9.9467 10.1749 9.80385 10.3457 9.66897L10.3458 9.66911L10.356 9.66064C10.5528 9.49659 10.739 9.32161 10.9143 9.13574C11.0874 8.96191 11.2543 8.76006 11.3894 8.53911C11.5501 8.27613 11.6202 7.98211 11.6254 7.70115C11.637 7.59857 11.6359 7.49555 11.6221 7.39305C11.5303 6.54209 10.7769 5.90077 9.91772 5.96409C9.36213 5.93669 8.82436 6.19706 8.50616 6.65704C8.37696 6.83863 8.28772 7.01884 8.21512 7.21141C8.15275 7.3673 8.10422 7.48604 8.04347 7.59236L8.04333 7.59228L8.03735 7.60338C7.99879 7.675 7.94194 7.74399 7.8824 7.79425C7.84703 7.81976 7.80453 7.83319 7.75327 7.83017L7.73861 7.82931H7.72391C7.65076 7.82931 7.56845 7.79863 7.5057 7.74045C7.4413 7.67942 7.41071 7.59432 7.41743 7.51707L7.41994 7.48811L7.41909 7.45906C7.41183 7.21212 7.47662 6.95866 7.59934 6.71226C7.72919 6.46163 7.9096 6.23749 8.1299 6.04131C8.37824 5.8384 8.64694 5.67561 8.92567 5.56581L8.92567 5.56582L8.9281 5.56484C9.22665 5.44542 9.53035 5.38672 9.84237 5.38672C10.1885 5.38672 10.541 5.44002 10.8815 5.5319C11.1845 5.6163 11.4749 5.76061 11.7337 5.94997C12.2613 6.34907 12.5635 6.99375 12.5308 7.66328ZM9.96459 13.5552C10.2486 13.5552 10.4831 13.7897 10.4831 14.0738C10.4831 14.3578 10.2486 14.5923 9.96459 14.5923C9.68057 14.5923 9.4461 14.3578 9.4461 14.0738C9.4461 13.7897 9.68058 13.5552 9.96459 13.5552Z" fill="#CBD5D8" stroke="#CBD5D8"/>
</svg>
