<svg width="24" height="24" viewBox="0 0 24 24" fill="none" xmlns="http://www.w3.org/2000/svg">
<path d="M12 0C5.37231 0 0 5.37231 0 12C0 18.6277 5.37231 24 12 24C18.6277 24 24 18.6277 24 12C24 5.37231 18.6277 0 12 0ZM9.95077 15.9508L6.84 12.84C6.40615 12.3323 6.47077 11.5754 6.96923 11.1508C7.42154 10.7631 8.07692 10.7631 8.52923 11.1508L10.8 13.4031L16.6523 7.55077C17.16 7.11692 17.9169 7.18154 18.3415 7.68C18.7292 8.13231 18.7292 8.78769 18.3415 9.24L11.6308 15.9508C11.1692 16.4123 10.4123 16.4123 9.95077 15.9508Z" />
</svg>
