<svg width="30" height="30" viewBox="0 0 30 30" fill="none" xmlns="http://www.w3.org/2000/svg">
<path fill-rule="evenodd" clip-rule="evenodd" d="M21.2238 8.03336C20.1183 7.01662 18.1796 5.79996 15.3055 5.79996C11.2585 5.79996 7.82362 8.41582 6.58151 12.0316L6.58158 12.0333C6.27546 12.9666 6.08846 13.9666 6.08846 15C6.08846 16.0333 6.27546 17.0334 6.59858 17.9667L6.59806 17.9671C7.82279 21.5835 11.258 24.1999 15.3055 24.1999C17.5843 24.1999 19.3191 23.5833 20.6116 22.6999L20.6121 22.7003L20.6122 22.6999C22.6531 21.3 23.5714 19.2167 23.7414 17.8333H15.3061V12.2667H29.6769C29.8979 13.2 30 14.1 30 15.3333C30 19.9 28.3333 23.75 25.4422 26.3667L25.4415 26.3667C22.9074 28.6666 19.4381 30 15.3055 30C9.31903 30 4.14893 26.6332 1.63195 21.7333L1.63223 21.7325C0.595097 19.6993 0 17.4164 0 15C0 12.5835 0.595175 10.3002 1.63243 8.26697L1.63195 8.2666C4.14893 3.36664 9.31902 0 15.3055 0C19.4381 0 22.8905 1.48334 25.5435 3.9L21.2238 8.03336Z"/>
</svg>
