<svg width="113" height="36" viewBox="0 0 113 36" fill="none" xmlns="http://www.w3.org/2000/svg">
<path d="M0 18C0 8.05888 8.05888 0 18 0H95C104.941 0 113 8.05888 113 18C113 27.9411 104.941 36 95 36H18C8.05888 36 0 27.9411 0 18Z" />
<path d="M40.321 23H46.7131V21.8281H41.642V12.0909H40.321V23ZM51.9119 23.1705C54.1278 23.1705 55.6193 21.4872 55.6193 18.9517C55.6193 16.3949 54.1278 14.7116 51.9119 14.7116C49.696 14.7116 48.2045 16.3949 48.2045 18.9517C48.2045 21.4872 49.696 23.1705 51.9119 23.1705ZM51.9119 22.0412C50.2287 22.0412 49.4616 20.5923 49.4616 18.9517C49.4616 17.3111 50.2287 15.8409 51.9119 15.8409C53.5952 15.8409 54.3622 17.3111 54.3622 18.9517C54.3622 20.5923 53.5952 22.0412 51.9119 22.0412ZM60.8408 26.2386C62.801 26.2386 64.3778 25.3438 64.3778 23.2344V14.8182H63.1633V16.1179H63.0354C62.7584 15.6918 62.2471 14.7116 60.6491 14.7116C58.5823 14.7116 57.1547 16.3523 57.1547 18.8665C57.1547 21.4233 58.6462 22.8722 60.6278 22.8722C62.2258 22.8722 62.7371 21.9347 63.0141 21.4872H63.1207V23.1491C63.1207 24.5128 62.1618 25.1307 60.8408 25.1307C59.3547 25.1307 58.8327 24.3477 58.4971 23.8949L57.4956 24.598C58.007 25.4556 59.0138 26.2386 60.8408 26.2386ZM60.7982 21.7429C59.2215 21.7429 58.4118 20.5497 58.4118 18.8452C58.4118 17.1832 59.2002 15.8409 60.7982 15.8409C62.3323 15.8409 63.142 17.0767 63.142 18.8452C63.142 20.6562 62.311 21.7429 60.7982 21.7429ZM80.2726 17.5455C80.2726 14.0938 78.2485 11.9418 75.4573 11.9418C72.6661 11.9418 70.642 14.0938 70.642 17.5455C70.642 20.9972 72.6661 23.1491 75.4573 23.1491C78.2485 23.1491 80.2726 20.9972 80.2726 17.5455ZM78.9942 17.5455C78.9942 20.3793 77.4388 21.9134 75.4573 21.9134C73.4758 21.9134 71.9204 20.3793 71.9204 17.5455C71.9204 14.7116 73.4758 13.1776 75.4573 13.1776C77.4388 13.1776 78.9942 14.7116 78.9942 17.5455ZM87.4797 19.6548C87.4797 21.1889 86.3078 21.892 85.3703 21.892C84.3263 21.892 83.5805 21.125 83.5805 19.9318V14.8182H82.3234V20.017C82.3234 22.1051 83.4314 23.1065 84.9655 23.1065C86.2013 23.1065 87.0109 22.446 87.3944 21.6151H87.4797V23H88.7368V14.8182H87.4797V19.6548ZM94.5975 14.8182H92.8503V12.858H91.5932V14.8182H90.3574V15.8835H91.5932V20.9972C91.5932 22.4247 92.7438 23.1065 93.8091 23.1065C94.2779 23.1065 94.5762 23.0213 94.7466 22.9574L94.4909 21.8281C94.3844 21.8494 94.214 21.892 93.937 21.892C93.383 21.892 92.8503 21.7216 92.8503 20.6562V15.8835H94.5975V14.8182Z" fill="#6A808F"/>
<path d="M25 13L23.59 14.41L26.17 17H19V19H26.17L23.59 21.58L25 23L30 18L25 13ZM16 13H22V11H16C14.9 11 14 11.9 14 13V23C14 24.1 14.9 25 16 25H22V23H16V13Z" fill="#A4B6BA"/>
</svg>
